<svg width="390" height="293" viewBox="0 0 390 293" fill="none" xmlns="http://www.w3.org/2000/svg">
<path d="M352.032 73.0619C349.799 71.6072 347.568 70.8807 345.335 70.3413C344.24 70.0931 343.145 69.9115 342.05 69.7892C341.923 68.7391 341.732 67.689 341.473 66.6388C340.91 64.4972 340.153 62.3574 338.638 60.2158C337.123 62.3574 336.366 64.4972 335.803 66.6388C335.543 67.6908 335.353 68.7445 335.226 69.7964C334.131 69.9205 333.036 70.1039 331.941 70.3503C329.71 70.8933 327.477 71.6162 325.246 73.0619C327.477 74.5059 329.71 75.2287 331.941 75.7718C333.04 76.0199 334.137 76.2033 335.233 76.3256C335.363 77.3793 335.554 78.4313 335.813 79.4832C336.377 81.6248 337.133 83.7646 338.638 85.9062C340.145 83.7646 340.899 81.6248 341.463 79.4832C341.722 78.4331 341.913 77.3847 342.041 76.3346C343.14 76.2123 344.236 76.0289 345.335 75.7808C347.568 75.2413 349.799 74.5149 352.032 73.0619Z" fill="url(#paint0_linear_115_173)"/>
<path d="M389.561 143.336C387.328 141.883 385.095 141.157 382.864 140.617C381.769 140.369 380.675 140.186 379.58 140.064C379.452 139.014 379.261 137.963 379.002 136.913C378.44 134.773 377.682 132.632 376.167 130.49C374.653 132.632 373.895 134.773 373.333 136.913C373.072 137.967 372.883 139.019 372.755 140.073C371.66 140.195 370.565 140.378 369.47 140.626C367.239 141.168 365.006 141.891 362.775 143.336C365.006 144.78 367.239 145.505 369.47 146.046C370.569 146.294 371.666 146.478 372.763 146.602C372.892 147.654 373.083 148.706 373.342 149.759C373.906 151.899 374.662 154.041 376.167 156.181C377.675 154.041 378.428 151.899 378.993 149.759C379.251 148.709 379.441 147.659 379.57 146.609C380.669 146.487 381.766 146.305 382.864 146.055C385.095 145.516 387.328 144.789 389.561 143.336Z" fill="url(#paint1_linear_115_173)"/>
<path d="M388.69 85.9062C387.648 85.2265 386.603 84.8867 385.561 84.6349C385.047 84.5198 384.535 84.4335 384.024 84.376C383.965 83.8851 383.875 83.3942 383.755 82.9033C383.491 81.9035 383.137 80.9019 382.43 79.9003C381.721 80.9019 381.367 81.9035 381.104 82.9033C380.983 83.396 380.893 83.8887 380.834 84.3796C380.323 84.4389 379.811 84.5234 379.299 84.6385C378.255 84.8921 377.212 85.2301 376.168 85.9062C377.212 86.5823 378.255 86.9204 379.299 87.1739C379.811 87.289 380.324 87.3753 380.838 87.4329C380.898 87.9256 380.988 88.4165 381.108 88.9092C381.373 89.909 381.725 90.9105 382.43 91.9121C383.133 90.9105 383.485 89.909 383.75 88.9092C383.872 88.4183 383.96 87.9274 384.02 87.4365C384.534 87.3789 385.047 87.2944 385.561 87.1775C386.603 86.9258 387.648 86.5859 388.69 85.9062Z" fill="url(#paint2_linear_115_173)"/>
<path d="M363.032 111.256C361.987 110.578 360.943 110.238 359.901 109.985C359.389 109.869 358.877 109.783 358.363 109.727C358.305 109.236 358.215 108.746 358.095 108.255C357.831 107.253 357.478 106.252 356.77 105.252C356.061 106.252 355.707 107.253 355.444 108.255C355.322 108.746 355.234 109.238 355.174 109.731C354.662 109.789 354.151 109.873 353.639 109.99C352.595 110.243 351.552 110.582 350.508 111.256C351.552 111.932 352.595 112.27 353.639 112.524C354.152 112.64 354.664 112.725 355.178 112.782C355.238 113.275 355.328 113.768 355.448 114.259C355.712 115.26 356.065 116.26 356.77 117.262C357.473 116.26 357.827 115.26 358.09 114.259C358.212 113.768 358.3 113.277 358.36 112.786C358.873 112.73 359.387 112.644 359.901 112.527C360.943 112.275 361.987 111.936 363.032 111.256Z" fill="url(#paint3_linear_115_173)"/>
<path d="M329.09 102.439C328.048 101.762 327.004 101.422 325.961 101.168C325.449 101.053 324.936 100.969 324.424 100.911C324.366 100.42 324.276 99.9292 324.156 99.4383C323.891 98.4367 323.539 97.4351 322.83 96.4353C322.122 97.4351 321.767 98.4367 321.505 99.4383C321.383 99.9292 321.295 100.422 321.235 100.915C320.723 100.972 320.211 101.057 319.699 101.174C318.655 101.427 317.613 101.765 316.568 102.439C317.613 103.116 318.655 103.454 319.699 103.707C320.213 103.824 320.725 103.909 321.239 103.966C321.299 104.459 321.389 104.951 321.509 105.442C321.773 106.444 322.125 107.444 322.83 108.445C323.533 107.444 323.888 106.444 324.15 105.442C324.272 104.951 324.36 104.461 324.42 103.97C324.934 103.914 325.448 103.828 325.961 103.711C327.004 103.459 328.048 103.119 329.09 102.439Z" fill="url(#paint4_linear_115_173)"/>
<path d="M347.876 146.578C346.833 145.898 345.789 145.559 344.746 145.307C344.235 145.19 343.721 145.105 343.209 145.048C343.151 144.557 343.061 144.066 342.941 143.575C342.677 142.575 342.324 141.574 341.615 140.572C340.907 141.574 340.552 142.575 340.29 143.575C340.168 144.068 340.08 144.561 340.02 145.051C339.508 145.111 338.996 145.195 338.485 145.31C337.44 145.564 336.398 145.902 335.354 146.578C336.398 147.254 337.44 147.592 338.485 147.844C338.998 147.961 339.51 148.047 340.024 148.105C340.084 148.597 340.174 149.088 340.294 149.581C340.558 150.581 340.911 151.582 341.615 152.584C342.319 151.582 342.671 150.581 342.935 149.581C343.057 149.09 343.145 148.599 343.205 148.108C343.719 148.051 344.233 147.966 344.746 147.849C345.789 147.598 346.833 147.258 347.876 146.578Z" fill="url(#paint5_linear_115_173)"/>
<path d="M56.7782 79.0834C54.546 77.6305 52.3137 76.904 50.0815 76.3646C48.9858 76.1164 47.8911 75.933 46.7962 75.8107C46.6687 74.7606 46.479 73.7105 46.2204 72.6604C45.6572 70.5205 44.9 68.3789 43.3847 66.2373C41.8695 68.3789 41.1122 70.5205 40.5498 72.6604C40.2899 73.7141 40.0995 74.766 39.972 75.8197C38.8778 75.9438 37.7829 76.1254 36.6882 76.3736C34.4558 76.9148 32.2244 77.6377 29.9922 79.0834C32.2244 80.5273 34.4558 81.2502 36.6882 81.7932C37.7859 82.0414 38.8831 82.2248 39.9808 82.3489C40.1098 83.4008 40.3001 84.4527 40.5594 85.5065C41.1248 87.6463 41.8783 89.7879 43.3847 91.9277C44.8914 89.7879 45.6456 87.6463 46.2103 85.5065C46.4689 84.4563 46.6591 83.4062 46.7881 82.3561C47.8859 82.2338 48.9838 82.0522 50.0815 81.8022C52.3137 81.2628 54.546 80.5363 56.7782 79.0834Z" fill="url(#paint6_linear_115_173)"/>
<path d="M30.5106 143.684C28.2792 142.231 26.047 141.505 23.8146 140.965C22.7199 140.717 21.6243 140.536 20.5294 140.413C20.4019 139.363 20.2123 138.313 19.953 137.261C19.3906 135.121 18.6333 132.98 17.118 130.84C15.6028 132.98 14.8455 135.121 14.2823 137.261C14.0231 138.315 13.8326 139.367 13.7052 140.42C12.6111 140.545 11.5162 140.726 10.4213 140.974C8.18908 141.516 5.95683 142.24 3.72461 143.684C5.95683 145.13 8.18908 145.853 10.4213 146.394C11.5191 146.642 12.6162 146.826 13.714 146.95C13.8422 148.002 14.0333 149.055 14.2926 150.107C14.8572 152.249 15.6115 154.389 17.118 156.53C18.6245 154.389 19.378 152.249 19.9435 150.107C20.202 149.057 20.3923 148.007 20.5213 146.957C21.619 146.835 22.7169 146.653 23.8146 146.403C26.047 145.864 28.2792 145.137 30.5106 143.684Z" fill="url(#paint7_linear_115_173)"/>
<path d="M86.6867 80.4111C85.6432 79.7332 84.5994 79.3933 83.5559 79.1398C83.0439 79.0247 82.532 78.9402 82.02 78.8827C81.9608 78.3918 81.8721 77.9009 81.7506 77.41C81.4878 76.4084 81.134 75.4068 80.4251 74.407C79.7168 75.4068 79.3632 76.4084 79.0994 77.41C78.9787 77.9009 78.8892 78.3936 78.83 78.8863C78.318 78.9438 77.8069 79.0283 77.2949 79.1452C76.2513 79.3987 75.2078 79.7368 74.1641 80.4111C75.2078 81.0872 76.2513 81.4253 77.2949 81.6788C77.8076 81.7939 78.321 81.8802 78.8335 81.9378C78.8945 82.4305 78.983 82.9232 79.1046 83.4141C79.369 84.4156 79.7213 85.4154 80.4251 86.417C81.1295 85.4154 81.4818 84.4156 81.7463 83.4141C81.867 82.9232 81.9565 82.4323 82.0165 81.9414C82.5298 81.8856 83.0426 81.7993 83.5559 81.6824C84.5994 81.4307 85.6432 81.0908 86.6867 80.4111Z" fill="url(#paint8_linear_115_173)"/>
<path d="M58.0343 117.628C56.9906 116.948 55.9463 116.608 54.9035 116.357C54.3908 116.241 53.8797 116.155 53.3677 116.099C53.3077 115.609 53.219 115.116 53.0983 114.625C52.8352 113.625 52.4809 112.624 51.7726 111.624C51.0644 112.624 50.7099 113.625 50.4471 114.625C50.3256 115.118 50.2369 115.61 50.1776 116.103C49.6656 116.161 49.1538 116.245 48.6418 116.362C47.5982 116.616 46.5545 116.954 45.5117 117.628C46.5545 118.304 47.5982 118.642 48.6418 118.896C49.1553 119.011 49.6679 119.097 50.1812 119.155C50.2412 119.647 50.3306 120.138 50.4515 120.631C50.7159 121.632 51.0682 122.632 51.7726 123.634C52.4771 122.632 52.8294 121.632 53.0938 120.631C53.2147 120.14 53.3034 119.649 53.3634 119.158C53.8767 119.101 54.39 119.016 54.9035 118.899C55.9463 118.647 56.9906 118.308 58.0343 117.628Z" fill="url(#paint9_linear_115_173)"/>
<path d="M12.5226 103.93C11.479 103.25 10.4354 102.91 9.39179 102.658C8.87987 102.543 8.36794 102.457 7.85602 102.399C7.7967 101.909 7.70809 101.418 7.58726 100.927C7.3236 99.9269 6.96987 98.9254 6.26167 97.9238C5.55275 98.9254 5.19903 99.9269 4.9361 100.927C4.81454 101.419 4.72518 101.912 4.66586 102.403C4.15395 102.462 3.64276 102.547 3.13083 102.664C2.08722 102.915 1.04361 103.254 0 103.93C1.04361 104.606 2.08722 104.944 3.13083 105.197C3.64349 105.312 4.15688 105.399 4.66954 105.456C4.73032 105.949 4.81965 106.44 4.94051 106.933C5.20488 107.932 5.55714 108.934 6.26167 109.936C6.96547 108.934 7.31775 107.932 7.58212 106.933C7.70295 106.442 7.79231 105.951 7.85236 105.46C8.36575 105.402 8.8784 105.318 9.39179 105.201C10.4354 104.949 11.479 104.609 12.5226 103.93Z" fill="url(#paint10_linear_115_173)"/>
<path d="M56.7785 158.641C55.7348 157.963 54.6912 157.623 53.6477 157.369C53.1357 157.254 52.6238 157.17 52.1118 157.112C52.0526 156.621 51.9631 156.13 51.8424 155.639C51.5794 154.638 51.225 153.636 50.5167 152.636C49.8086 153.636 49.454 154.638 49.1912 155.639C49.0705 156.13 48.981 156.623 48.9218 157.116C48.4098 157.173 47.8979 157.258 47.3859 157.375C46.3424 157.628 45.2994 157.966 44.2559 158.641C45.2994 159.317 46.3424 159.655 47.3859 159.908C47.8992 160.025 48.412 160.11 48.9253 160.167C48.9853 160.66 49.0748 161.153 49.1963 161.644C49.46 162.645 49.8123 163.645 50.5167 164.646C51.2213 163.645 51.5736 162.645 51.8379 161.644C51.9588 161.153 52.0473 160.662 52.1075 160.171C52.6208 160.115 53.1342 160.029 53.6477 159.912C54.6912 159.66 55.7348 159.32 56.7785 158.641Z" fill="url(#paint11_linear_115_173)"/>
<path d="M309.749 170.247C309.749 230.154 259.115 278.715 196.657 278.715C134.198 278.715 83.5645 230.154 83.5645 170.247C83.5645 110.343 134.198 61.7799 196.657 61.7799C259.115 61.7799 309.749 110.343 309.749 170.247Z" fill="url(#paint12_linear_115_173)"/>
<path d="M319.15 170.248C319.15 235.133 264.307 287.731 196.657 287.731C129.006 287.731 74.1641 235.133 74.1641 170.248C74.1641 105.364 129.006 52.7643 196.657 52.7643C264.307 52.7643 319.15 105.364 319.15 170.248Z" stroke="url(#paint13_linear_115_173)" stroke-width="9.96628" stroke-miterlimit="10"/>
<path d="M102.477 218.968V178.968H118.492C121.435 178.968 123.889 179.404 125.855 180.276C127.822 181.149 129.299 182.36 130.289 183.909C131.279 185.446 131.773 187.216 131.773 189.222C131.773 190.784 131.461 192.158 130.836 193.343C130.211 194.515 129.352 195.478 128.258 196.233C127.177 196.976 125.94 197.503 124.547 197.815V198.206C126.07 198.271 127.496 198.701 128.824 199.495C130.165 200.289 131.253 201.403 132.086 202.835C132.919 204.254 133.336 205.947 133.336 207.913C133.336 210.035 132.809 211.93 131.754 213.597C130.712 215.25 129.169 216.559 127.125 217.522C125.081 218.486 122.561 218.968 119.566 218.968H102.477ZM110.934 212.054H117.828C120.185 212.054 121.904 211.604 122.984 210.706C124.065 209.795 124.605 208.584 124.605 207.073C124.605 205.966 124.339 204.99 123.805 204.144C123.271 203.297 122.509 202.633 121.52 202.151C120.543 201.67 119.378 201.429 118.023 201.429H110.934V212.054ZM110.934 195.706H117.203C118.362 195.706 119.391 195.504 120.289 195.101C121.201 194.684 121.917 194.098 122.438 193.343C122.971 192.588 123.238 191.683 123.238 190.628C123.238 189.183 122.724 188.017 121.695 187.132C120.68 186.246 119.234 185.804 117.359 185.804H110.934V195.706ZM175.597 198.968C175.597 203.33 174.77 207.041 173.116 210.101C171.476 213.16 169.236 215.498 166.397 217.112C163.572 218.714 160.395 219.515 156.866 219.515C153.312 219.515 150.121 218.707 147.296 217.093C144.47 215.478 142.237 213.141 140.597 210.081C138.956 207.021 138.136 203.317 138.136 198.968C138.136 194.606 138.956 190.895 140.597 187.835C142.237 184.775 144.47 182.444 147.296 180.843C150.121 179.228 153.312 178.421 156.866 178.421C160.395 178.421 163.572 179.228 166.397 180.843C169.236 182.444 171.476 184.775 173.116 187.835C174.77 190.895 175.597 194.606 175.597 198.968ZM167.022 198.968C167.022 196.142 166.599 193.759 165.753 191.819C164.92 189.879 163.741 188.408 162.218 187.405C160.694 186.403 158.91 185.901 156.866 185.901C154.822 185.901 153.038 186.403 151.515 187.405C149.991 188.408 148.806 189.879 147.96 191.819C147.127 193.759 146.71 196.142 146.71 198.968C146.71 201.793 147.127 204.176 147.96 206.116C148.806 208.056 149.991 209.528 151.515 210.53C153.038 211.533 154.822 212.034 156.866 212.034C158.91 212.034 160.694 211.533 162.218 210.53C163.741 209.528 164.92 208.056 165.753 206.116C166.599 204.176 167.022 201.793 167.022 198.968ZM215.318 178.968V218.968H208.014L190.611 193.792H190.318V218.968H181.861V178.968H189.283L206.549 204.124H206.9V178.968H215.318ZM247.013 178.968H255.47V204.944C255.47 207.861 254.773 210.413 253.38 212.601C252 214.788 250.066 216.494 247.579 217.718C245.092 218.929 242.195 219.534 238.888 219.534C235.567 219.534 232.664 218.929 230.177 217.718C227.69 216.494 225.756 214.788 224.376 212.601C222.996 210.413 222.306 207.861 222.306 204.944V178.968H230.763V204.222C230.763 205.745 231.095 207.099 231.759 208.284C232.436 209.469 233.386 210.4 234.61 211.077C235.834 211.754 237.26 212.093 238.888 212.093C240.528 212.093 241.954 211.754 243.165 211.077C244.389 210.4 245.333 209.469 245.997 208.284C246.674 207.099 247.013 205.745 247.013 204.222V178.968ZM242.813 175.374L238.888 170.608L234.962 175.374H227.872V175.101L235.782 166.507H241.974L249.903 175.101V175.374H242.813ZM284.127 190.472C283.971 188.896 283.3 187.672 282.115 186.8C280.93 185.927 279.322 185.491 277.291 185.491C275.911 185.491 274.745 185.687 273.795 186.077C272.844 186.455 272.115 186.982 271.607 187.659C271.113 188.336 270.865 189.104 270.865 189.964C270.839 190.68 270.989 191.305 271.314 191.839C271.653 192.373 272.115 192.835 272.701 193.226C273.287 193.603 273.964 193.935 274.732 194.222C275.501 194.495 276.321 194.729 277.193 194.925L280.787 195.784C282.532 196.175 284.133 196.696 285.592 197.347C287.05 197.998 288.313 198.799 289.381 199.749C290.449 200.7 291.275 201.819 291.861 203.108C292.46 204.397 292.766 205.875 292.779 207.542C292.766 209.99 292.141 212.112 290.904 213.909C289.68 215.693 287.91 217.08 285.592 218.069C283.287 219.046 280.507 219.534 277.252 219.534C274.023 219.534 271.21 219.039 268.814 218.05C266.432 217.06 264.57 215.595 263.229 213.655C261.9 211.702 261.204 209.287 261.139 206.409H269.322C269.413 207.75 269.798 208.87 270.475 209.769C271.165 210.654 272.083 211.325 273.229 211.78C274.387 212.223 275.696 212.444 277.154 212.444C278.587 212.444 279.83 212.236 280.885 211.819C281.952 211.403 282.779 210.823 283.365 210.081C283.951 209.339 284.244 208.486 284.244 207.522C284.244 206.624 283.977 205.869 283.443 205.257C282.923 204.645 282.154 204.124 281.139 203.694C280.136 203.265 278.906 202.874 277.447 202.522L273.092 201.429C269.719 200.608 267.057 199.326 265.104 197.581C263.15 195.836 262.18 193.486 262.193 190.53C262.18 188.108 262.825 185.993 264.127 184.183C265.442 182.373 267.245 180.96 269.537 179.944C271.829 178.929 274.433 178.421 277.35 178.421C280.318 178.421 282.91 178.929 285.123 179.944C287.35 180.96 289.081 182.373 290.318 184.183C291.555 185.993 292.193 188.089 292.232 190.472H284.127Z" fill="white"/>
<path d="M196.791 106.025C196.791 107.967 196.436 109.636 195.726 111.032C195.016 112.423 194.042 113.495 192.805 114.246C191.574 114.992 190.174 115.365 188.606 115.365C187.031 115.365 185.626 114.992 184.389 114.246C183.158 113.495 182.187 112.42 181.477 111.024C180.767 109.627 180.412 107.961 180.412 106.025C180.412 104.084 180.767 102.418 181.477 101.027C182.187 99.6303 183.158 98.559 184.389 97.8133C185.626 97.0616 187.031 96.6858 188.606 96.6858C190.174 96.6858 191.574 97.0616 192.805 97.8133C194.042 98.559 195.016 99.6303 195.726 101.027C196.436 102.418 196.791 104.084 196.791 106.025ZM194.075 106.025C194.075 104.546 193.835 103.3 193.355 102.288C192.882 101.27 192.231 100.5 191.402 99.9795C190.58 99.4527 189.647 99.1894 188.606 99.1894C187.558 99.1894 186.623 99.4527 185.8 99.9795C184.978 100.5 184.327 101.27 183.847 102.288C183.374 103.3 183.137 104.546 183.137 106.025C183.137 107.505 183.374 108.754 183.847 109.772C184.327 110.784 184.978 111.553 185.8 112.08C186.623 112.601 187.558 112.861 188.606 112.861C189.647 112.861 190.58 112.601 191.402 112.08C192.231 111.553 192.882 110.784 193.355 109.772C193.835 108.754 194.075 107.505 194.075 106.025ZM210.128 101.711C210.033 100.87 209.643 100.219 208.956 99.7575C208.27 99.29 207.405 99.0562 206.364 99.0562C205.618 99.0562 204.973 99.1746 204.428 99.4113C203.884 99.6421 203.461 99.9617 203.159 100.37C202.863 100.773 202.715 101.231 202.715 101.746C202.715 102.178 202.816 102.551 203.017 102.865C203.224 103.178 203.493 103.442 203.825 103.655C204.162 103.862 204.523 104.037 204.908 104.179C205.292 104.315 205.662 104.427 206.017 104.516L207.793 104.978C208.373 105.12 208.968 105.312 209.578 105.555C210.187 105.797 210.752 106.117 211.273 106.514C211.794 106.91 212.214 107.401 212.534 107.987C212.859 108.573 213.022 109.275 213.022 110.091C213.022 111.121 212.756 112.036 212.223 112.835C211.696 113.634 210.93 114.264 209.924 114.726C208.924 115.187 207.713 115.418 206.293 115.418C204.931 115.418 203.754 115.202 202.759 114.77C201.765 114.338 200.987 113.725 200.424 112.932C199.862 112.133 199.551 111.186 199.492 110.091H202.244C202.298 110.748 202.511 111.296 202.884 111.734C203.262 112.166 203.745 112.488 204.331 112.701C204.923 112.909 205.571 113.012 206.275 113.012C207.05 113.012 207.74 112.891 208.343 112.648C208.953 112.4 209.432 112.056 209.782 111.618C210.131 111.174 210.305 110.657 210.305 110.065C210.305 109.526 210.152 109.085 209.844 108.742C209.542 108.399 209.131 108.115 208.61 107.89C208.095 107.665 207.512 107.466 206.861 107.295L204.712 106.709C203.256 106.312 202.102 105.729 201.25 104.96C200.404 104.191 199.981 103.173 199.981 101.906C199.981 100.858 200.265 99.944 200.833 99.1627C201.401 98.3815 202.17 97.7748 203.141 97.3428C204.112 96.9048 205.207 96.6858 206.426 96.6858C207.657 96.6858 208.743 96.9018 209.684 97.3339C210.631 97.766 211.377 98.3608 211.921 99.1183C212.466 99.87 212.75 100.734 212.774 101.711H210.128Z" fill="white"/>
<path d="M161.099 127.784H158.329C158.222 127.192 158.024 126.671 157.734 126.221C157.444 125.771 157.089 125.39 156.669 125.076C156.248 124.762 155.778 124.525 155.257 124.366C154.742 124.206 154.195 124.126 153.615 124.126C152.567 124.126 151.629 124.389 150.8 124.916C149.978 125.443 149.327 126.215 148.847 127.233C148.374 128.251 148.137 129.494 148.137 130.962C148.137 132.441 148.374 133.69 148.847 134.708C149.327 135.726 149.981 136.496 150.809 137.017C151.638 137.537 152.57 137.798 153.606 137.798C154.18 137.798 154.724 137.721 155.239 137.567C155.76 137.407 156.231 137.173 156.651 136.866C157.071 136.558 157.426 136.182 157.716 135.738C158.012 135.288 158.216 134.773 158.329 134.193L161.099 134.202C160.951 135.096 160.664 135.919 160.238 136.67C159.817 137.416 159.276 138.061 158.613 138.606C157.956 139.144 157.204 139.561 156.358 139.857C155.512 140.153 154.588 140.301 153.588 140.301C152.014 140.301 150.611 139.928 149.38 139.183C148.149 138.431 147.178 137.357 146.468 135.96C145.764 134.563 145.412 132.897 145.412 130.962C145.412 129.021 145.767 127.354 146.477 125.964C147.187 124.567 148.158 123.496 149.389 122.75C150.62 121.998 152.02 121.622 153.588 121.622C154.553 121.622 155.452 121.761 156.287 122.04C157.127 122.312 157.882 122.714 158.551 123.247C159.22 123.774 159.773 124.419 160.211 125.182C160.649 125.94 160.945 126.807 161.099 127.784ZM176.073 121.871H178.826V133.829C178.826 135.102 178.527 136.229 177.929 137.212C177.331 138.188 176.491 138.958 175.408 139.52C174.324 140.076 173.055 140.355 171.599 140.355C170.149 140.355 168.882 140.076 167.799 139.52C166.716 138.958 165.876 138.188 165.278 137.212C164.68 136.229 164.381 135.102 164.381 133.829V121.871H167.125V133.607C167.125 134.43 167.305 135.161 167.666 135.8C168.033 136.439 168.551 136.943 169.22 137.309C169.889 137.671 170.682 137.851 171.599 137.851C172.522 137.851 173.318 137.671 173.987 137.309C174.662 136.943 175.177 136.439 175.532 135.8C175.893 135.161 176.073 134.43 176.073 133.607V121.871ZM182.814 140.053V121.871H189.295C190.703 121.871 191.872 122.114 192.801 122.599C193.737 123.084 194.435 123.756 194.897 124.614C195.358 125.466 195.589 126.452 195.589 127.57C195.589 128.683 195.355 129.663 194.888 130.509C194.426 131.349 193.728 132.003 192.793 132.471C191.863 132.939 190.694 133.172 189.286 133.172H184.376V130.811H189.037C189.925 130.811 190.647 130.684 191.203 130.429C191.766 130.175 192.177 129.805 192.438 129.319C192.698 128.834 192.828 128.251 192.828 127.57C192.828 126.884 192.695 126.289 192.429 125.786C192.168 125.283 191.757 124.898 191.195 124.632C190.638 124.36 189.907 124.224 189.002 124.224H185.557V140.053H182.814ZM191.789 131.85L196.282 140.053H193.157L188.753 131.85H191.789ZM208.844 126.647C208.749 125.807 208.358 125.156 207.672 124.694C206.985 124.227 206.121 123.993 205.08 123.993C204.334 123.993 203.689 124.111 203.144 124.348C202.6 124.579 202.176 124.898 201.875 125.307C201.579 125.709 201.431 126.168 201.431 126.683C201.431 127.115 201.531 127.488 201.733 127.801C201.94 128.115 202.209 128.378 202.54 128.591C202.878 128.799 203.239 128.973 203.624 129.115C204.008 129.251 204.378 129.364 204.733 129.453L206.509 129.914C207.089 130.056 207.684 130.249 208.293 130.491C208.903 130.734 209.468 131.054 209.989 131.45C210.51 131.847 210.93 132.338 211.25 132.924C211.575 133.51 211.738 134.211 211.738 135.028C211.738 136.058 211.472 136.972 210.939 137.771C210.412 138.57 209.646 139.2 208.64 139.662C207.639 140.124 206.429 140.355 205.009 140.355C203.647 140.355 202.469 140.139 201.475 139.706C200.481 139.274 199.703 138.662 199.14 137.869C198.578 137.07 198.267 136.123 198.208 135.028H200.96C201.013 135.685 201.227 136.232 201.599 136.67C201.978 137.102 202.461 137.425 203.047 137.638C203.638 137.845 204.286 137.949 204.991 137.949C205.766 137.949 206.456 137.827 207.059 137.585C207.669 137.336 208.148 136.993 208.498 136.555C208.847 136.111 209.021 135.593 209.021 135.001C209.021 134.463 208.867 134.022 208.56 133.678C208.258 133.335 207.846 133.051 207.326 132.826C206.811 132.601 206.228 132.403 205.577 132.231L203.428 131.645C201.972 131.249 200.818 130.666 199.966 129.896C199.12 129.127 198.696 128.109 198.696 126.843C198.696 125.795 198.98 124.881 199.549 124.099C200.117 123.318 200.886 122.711 201.857 122.279C202.828 121.841 203.922 121.622 205.142 121.622C206.373 121.622 207.459 121.838 208.4 122.27C209.347 122.702 210.093 123.297 210.637 124.055C211.182 124.807 211.466 125.671 211.489 126.647H208.844ZM230.81 130.962C230.81 132.903 230.455 134.572 229.744 135.969C229.034 137.36 228.061 138.431 226.824 139.183C225.593 139.928 224.193 140.301 222.624 140.301C221.05 140.301 219.644 139.928 218.407 139.183C217.176 138.431 216.206 137.357 215.495 135.96C214.785 134.563 214.43 132.897 214.43 130.962C214.43 129.021 214.785 127.354 215.495 125.964C216.206 124.567 217.176 123.496 218.407 122.75C219.644 121.998 221.05 121.622 222.624 121.622C224.193 121.622 225.593 121.998 226.824 122.75C228.061 123.496 229.034 124.567 229.744 125.964C230.455 127.354 230.81 129.021 230.81 130.962ZM228.093 130.962C228.093 129.482 227.853 128.236 227.374 127.224C226.901 126.206 226.249 125.437 225.421 124.916C224.598 124.389 223.666 124.126 222.624 124.126C221.577 124.126 220.642 124.389 219.819 124.916C218.996 125.437 218.345 126.206 217.866 127.224C217.392 128.236 217.156 129.482 217.156 130.962C217.156 132.441 217.392 133.69 217.866 134.708C218.345 135.72 218.996 136.49 219.819 137.017C220.642 137.537 221.577 137.798 222.624 137.798C223.666 137.798 224.598 137.537 225.421 137.017C226.249 136.49 226.901 135.72 227.374 134.708C227.853 133.69 228.093 132.441 228.093 130.962ZM244.146 126.647C244.052 125.807 243.661 125.156 242.975 124.694C242.288 124.227 241.424 123.993 240.382 123.993C239.637 123.993 238.991 124.111 238.447 124.348C237.902 124.579 237.479 124.898 237.177 125.307C236.881 125.709 236.733 126.168 236.733 126.683C236.733 127.115 236.834 127.488 237.035 127.801C237.242 128.115 237.512 128.378 237.843 128.591C238.181 128.799 238.542 128.973 238.926 129.115C239.311 129.251 239.681 129.364 240.036 129.453L241.812 129.914C242.392 130.056 242.986 130.249 243.596 130.491C244.206 130.734 244.771 131.054 245.292 131.45C245.813 131.847 246.233 132.338 246.552 132.924C246.878 133.51 247.041 134.211 247.041 135.028C247.041 136.058 246.774 136.972 246.242 137.771C245.715 138.57 244.948 139.2 243.942 139.662C242.942 140.124 241.732 140.355 240.311 140.355C238.95 140.355 237.772 140.139 236.778 139.706C235.784 139.274 235.005 138.662 234.443 137.869C233.881 137.07 233.57 136.123 233.511 135.028H236.263C236.316 135.685 236.529 136.232 236.902 136.67C237.281 137.102 237.763 137.425 238.349 137.638C238.941 137.845 239.589 137.949 240.294 137.949C241.069 137.949 241.758 137.827 242.362 137.585C242.972 137.336 243.451 136.993 243.8 136.555C244.149 136.111 244.324 135.593 244.324 135.001C244.324 134.463 244.17 134.022 243.862 133.678C243.561 133.335 243.149 133.051 242.628 132.826C242.113 132.601 241.53 132.403 240.879 132.231L238.731 131.645C237.275 131.249 236.121 130.666 235.269 129.896C234.422 129.127 233.999 128.109 233.999 126.843C233.999 125.795 234.283 124.881 234.851 124.099C235.42 123.318 236.189 122.711 237.16 122.279C238.13 121.841 239.225 121.622 240.444 121.622C241.675 121.622 242.762 121.838 243.703 122.27C244.65 122.702 245.395 123.297 245.94 124.055C246.484 124.807 246.768 125.671 246.792 126.647H244.146Z" fill="white"/>
<path d="M288.351 156.034H104.965V154.542H288.351V156.034Z" fill="white"/>
<path d="M193.852 56.5703L251.225 -0.000133514L277.368 31.4517L193.852 56.5703Z" fill="url(#paint14_linear_115_173)"/>
<path d="M204.123 56.5703L149.507 1.20463L118.422 30.6929L204.123 56.5703Z" fill="url(#paint15_linear_115_173)"/>
<path d="M199.863 40.3719C191.807 40.3719 185.275 46.6367 185.275 54.3652H214.453C214.453 46.6367 207.921 40.3719 199.863 40.3719Z" fill="url(#paint16_linear_115_173)"/>
<path d="M173.334 44.3126C184.145 45.886 195.021 46.6718 205.867 46.9757C216.713 47.2796 227.538 46.9793 238.253 46.1683C243.615 45.8303 248.936 45.1542 254.236 44.5356C256.883 44.2011 259.508 43.721 262.135 43.3236L266.068 42.7015C267.371 42.4641 268.666 42.1746 269.964 41.9139L277.72 40.3189L285.345 38.3409L289.14 37.3537L292.863 36.1615L300.276 33.7951L292.102 46.1611L305.666 52.3468L297.194 53.7314L292.976 54.4147L288.733 54.8751L280.275 55.7724L271.818 56.2471C270.41 56.319 269.008 56.4179 267.602 56.4647L263.385 56.5096C260.577 56.5204 257.777 56.6085 254.98 56.551C249.384 56.3837 243.812 56.2597 238.266 55.7975C227.174 55.0028 216.182 53.6811 205.338 51.7642C194.502 49.8474 183.775 47.4522 173.334 44.3126Z" fill="url(#paint17_linear_115_173)"/>
<path d="M227.438 44.3126C216.628 45.886 205.752 46.6718 194.906 46.9757C184.06 47.2796 173.234 46.9793 162.52 46.1683C157.157 45.8303 151.836 45.1542 146.537 44.5356C143.89 44.2011 141.265 43.721 138.638 43.3236L134.705 42.7015C133.4 42.4641 132.106 42.1746 130.809 41.9139L123.052 40.3189L115.427 38.3409L111.632 37.3537L107.909 36.1615L100.496 33.7951L108.67 46.1611L95.1055 52.3468L103.578 53.7314L107.797 54.4147L112.04 54.8751L120.496 55.7724L128.954 56.2471C130.361 56.319 131.765 56.4179 133.17 56.4647L137.386 56.5096C140.195 56.5204 142.994 56.6085 145.791 56.551C151.388 56.3837 156.96 56.2597 162.507 55.7975C173.598 55.0028 184.59 53.6811 195.434 51.7642C206.271 49.8474 216.997 47.4522 227.438 44.3126Z" fill="url(#paint18_linear_115_173)"/>
<defs>
<linearGradient id="paint0_linear_115_173" x1="338.639" y1="85.9062" x2="338.639" y2="60.2158" gradientUnits="userSpaceOnUse">
<stop stop-color="#C368D1"/>
<stop offset="1" stop-color="#FF00E5"/>
</linearGradient>
<linearGradient id="paint1_linear_115_173" x1="376.168" y1="156.181" x2="376.168" y2="130.49" gradientUnits="userSpaceOnUse">
<stop stop-color="#C368D1"/>
<stop offset="1" stop-color="#FF00E5"/>
</linearGradient>
<linearGradient id="paint2_linear_115_173" x1="382.429" y1="91.9121" x2="382.429" y2="79.9003" gradientUnits="userSpaceOnUse">
<stop stop-color="#C368D1"/>
<stop offset="1" stop-color="#FF00E5"/>
</linearGradient>
<linearGradient id="paint3_linear_115_173" x1="356.77" y1="117.262" x2="356.77" y2="105.252" gradientUnits="userSpaceOnUse">
<stop stop-color="#C368D1"/>
<stop offset="1" stop-color="#FF00E5"/>
</linearGradient>
<linearGradient id="paint4_linear_115_173" x1="322.829" y1="108.445" x2="322.829" y2="96.4353" gradientUnits="userSpaceOnUse">
<stop stop-color="#C368D1"/>
<stop offset="1" stop-color="#FF00E5"/>
</linearGradient>
<linearGradient id="paint5_linear_115_173" x1="341.615" y1="152.584" x2="341.615" y2="140.572" gradientUnits="userSpaceOnUse">
<stop stop-color="#C368D1"/>
<stop offset="1" stop-color="#FF00E5"/>
</linearGradient>
<linearGradient id="paint6_linear_115_173" x1="43.3852" y1="91.9277" x2="43.3852" y2="66.2373" gradientUnits="userSpaceOnUse">
<stop stop-color="#C368D1"/>
<stop offset="1" stop-color="#FF00E5"/>
</linearGradient>
<linearGradient id="paint7_linear_115_173" x1="17.1176" y1="156.53" x2="17.1176" y2="130.84" gradientUnits="userSpaceOnUse">
<stop stop-color="#C368D1"/>
<stop offset="1" stop-color="#FF00E5"/>
</linearGradient>
<linearGradient id="paint8_linear_115_173" x1="80.4254" y1="86.417" x2="80.4254" y2="74.407" gradientUnits="userSpaceOnUse">
<stop stop-color="#C368D1"/>
<stop offset="1" stop-color="#FF00E5"/>
</linearGradient>
<linearGradient id="paint9_linear_115_173" x1="51.773" y1="123.634" x2="51.773" y2="111.624" gradientUnits="userSpaceOnUse">
<stop stop-color="#C368D1"/>
<stop offset="1" stop-color="#FF00E5"/>
</linearGradient>
<linearGradient id="paint10_linear_115_173" x1="6.26131" y1="109.936" x2="6.26131" y2="97.9238" gradientUnits="userSpaceOnUse">
<stop stop-color="#C368D1"/>
<stop offset="1" stop-color="#FF00E5"/>
</linearGradient>
<linearGradient id="paint11_linear_115_173" x1="50.5172" y1="164.646" x2="50.5172" y2="152.636" gradientUnits="userSpaceOnUse">
<stop stop-color="#C368D1"/>
<stop offset="1" stop-color="#FF00E5"/>
</linearGradient>
<linearGradient id="paint12_linear_115_173" x1="196.657" y1="278.715" x2="196.657" y2="61.7799" gradientUnits="userSpaceOnUse">
<stop stop-color="#C368D1"/>
<stop offset="1" stop-color="#FF00E5"/>
</linearGradient>
<linearGradient id="paint13_linear_115_173" x1="196.657" y1="287.731" x2="196.657" y2="52.7643" gradientUnits="userSpaceOnUse">
<stop stop-color="#C368D1"/>
<stop offset="1" stop-color="#FF00E5"/>
</linearGradient>
<linearGradient id="paint14_linear_115_173" x1="235.61" y1="56.5703" x2="235.61" y2="-0.000133514" gradientUnits="userSpaceOnUse">
<stop stop-color="#C368D1"/>
<stop offset="1" stop-color="#FF00E5"/>
</linearGradient>
<linearGradient id="paint15_linear_115_173" x1="161.273" y1="56.5703" x2="161.273" y2="1.20463" gradientUnits="userSpaceOnUse">
<stop stop-color="#C368D1"/>
<stop offset="1" stop-color="#FF00E5"/>
</linearGradient>
<linearGradient id="paint16_linear_115_173" x1="199.864" y1="54.3652" x2="199.864" y2="40.3719" gradientUnits="userSpaceOnUse">
<stop stop-color="#C368D1"/>
<stop offset="1" stop-color="#FF00E5"/>
</linearGradient>
<linearGradient id="paint17_linear_115_173" x1="239.5" y1="56.5703" x2="239.5" y2="33.7951" gradientUnits="userSpaceOnUse">
<stop stop-color="#C368D1"/>
<stop offset="1" stop-color="#FF00E5"/>
</linearGradient>
<linearGradient id="paint18_linear_115_173" x1="161.272" y1="56.5703" x2="161.272" y2="33.7951" gradientUnits="userSpaceOnUse">
<stop stop-color="#C368D1"/>
<stop offset="1" stop-color="#FF00E5"/>
</linearGradient>
</defs>
</svg>
